<svg width="24" height="24" viewBox="0 0 24 24" fill="none" xmlns="http://www.w3.org/2000/svg">
<path d="M19.5882 21.2272L13.2464 14.8852C12.7504 15.2694 12.1784 15.5742 11.5304 15.7995C10.8824 16.0248 10.1898 16.1375 9.45244 16.1375C7.59977 16.1375 6.03036 15.4944 4.74419 14.2082C3.45802 12.9219 2.81494 11.3525 2.81494 9.5C2.81494 7.6475 3.45802 6.07808 4.74419 4.79175C6.03036 3.50558 7.59977 2.8625 9.45244 2.8625C11.3049 2.8625 12.8743 3.50558 14.1604 4.79175C15.4468 6.07808 16.0899 7.6475 16.0899 9.5C16.0899 10.2413 15.9773 10.934 15.7519 11.578C15.5264 12.222 15.2217 12.79 14.8377 13.282L21.1854 19.6357L19.5882 21.2272ZM9.45244 13.8625C10.6664 13.8625 11.697 13.4389 12.5442 12.5918C13.3914 11.7448 13.8149 10.7142 13.8149 9.5C13.8149 8.28583 13.3914 7.25525 12.5442 6.40825C11.697 5.56108 10.6664 5.1375 9.45244 5.1375C8.23828 5.1375 7.20761 5.56108 6.36044 6.40825C5.51344 7.25525 5.08994 8.28583 5.08994 9.5C5.08994 10.7142 5.51344 11.7448 6.36044 12.5918C7.20761 13.4389 8.23828 13.8625 9.45244 13.8625Z" fill="#A2A2A2"/>
</svg>
