<svg width="23" height="24" viewBox="0 0 23 24" fill="none" xmlns="http://www.w3.org/2000/svg">
<path d="M11.25 0.0234375C11.4622 0.0234375 11.6744 0.06961 11.8682 0.157227H11.8691L20.6953 3.90234V3.90332C21.7187 4.33592 22.4812 5.34466 22.4766 6.5625C22.4531 11.2087 20.542 19.7049 12.4775 23.5664C11.7011 23.9383 10.7989 23.9383 10.0225 23.5664C1.95798 19.7049 0.0468873 11.2087 0.0234375 6.5625C0.0187893 5.34466 0.781344 4.33592 1.80469 3.90332V3.90234L10.6357 0.157227H10.6367C10.8257 0.0696977 11.0378 0.0234405 11.25 0.0234375ZM19.5234 6.6123L19.5088 6.60645L11.2588 3.10938L11.2266 3.0957V20.8877L11.2598 20.8711C17.7402 17.7342 19.4812 10.7896 19.5234 6.62793V6.6123Z" fill="white" stroke="#EDC1F2" stroke-width="0.046875"/>
</svg>
