<svg width="27" height="24" viewBox="0 0 27 24" fill="none" xmlns="http://www.w3.org/2000/svg">
<path d="M9.08008 15.0234H16.5C17.3167 15.0234 17.9766 15.6833 17.9766 16.5C17.9766 17.3167 17.3167 17.9766 16.5 17.9766H12.75C12.3246 17.9766 11.9766 18.3246 11.9766 18.75C11.9766 19.1754 12.3246 19.5234 12.75 19.5234H18.4111L18.417 19.5186L24.0283 15.3848C24.8523 14.7785 26.0089 14.9544 26.6152 15.7783C27.2215 16.6023 27.0456 17.7589 26.2217 18.3652L20.2881 22.7393C19.1952 23.5426 17.8776 23.9766 16.5186 23.9766H1.5C0.683257 23.9766 0.0234375 23.3167 0.0234375 22.5V19.5C0.0234375 18.6833 0.683257 18.0234 1.5 18.0234H3.2334L3.23926 18.0186L5.34473 16.3311C6.40457 15.4814 7.72133 15.0234 9.08008 15.0234ZM9.0332 17.9766V18.0234H9.0752V17.9766H9.0332ZM16.4717 0.0234375C18.4415 0.0234375 20.0391 1.62095 20.0391 3.59082C20.039 4.53609 19.662 5.44448 18.9961 6.11035L14.1445 10.957C13.7881 11.3135 13.2071 11.3135 12.8506 10.957L8.00391 6.11035C7.33803 5.44448 6.96099 4.53609 6.96094 3.59082C6.96094 1.62095 8.55845 0.0234375 10.5283 0.0234375C11.4736 0.0234892 12.382 0.400531 13.0479 1.06641L13.4834 1.50293L13.5 1.51953L13.5166 1.50293L13.9521 1.06641C14.618 0.400531 15.5264 0.0234892 16.4717 0.0234375Z" fill="#F5F5F5" stroke="#EDC1F2" stroke-width="0.046875"/>
</svg>
