<svg width="14" height="20" viewBox="0 0 14 20" fill="none" xmlns="http://www.w3.org/2000/svg">
<path d="M14 20H0V0H14V20Z" stroke="#E5E7EB"/>
<g clip-path="url(#clip0_39_5531)">
<path d="M2 3C0.896875 3 0 3.89688 0 5V15C0 16.1031 0.896875 17 2 17H12C13.1031 17 14 16.1031 14 15V7.41563C14 6.88438 13.7906 6.375 13.4156 6L11 3.58438C10.625 3.20938 10.1156 3 9.58438 3H2ZM2 6C2 5.44688 2.44688 5 3 5H9C9.55313 5 10 5.44688 10 6V8C10 8.55312 9.55313 9 9 9H3C2.44688 9 2 8.55312 2 8V6ZM7 11C7.53043 11 8.03914 11.2107 8.41421 11.5858C8.78929 11.9609 9 12.4696 9 13C9 13.5304 8.78929 14.0391 8.41421 14.4142C8.03914 14.7893 7.53043 15 7 15C6.46957 15 5.96086 14.7893 5.58579 14.4142C5.21071 14.0391 5 13.5304 5 13C5 12.4696 5.21071 11.9609 5.58579 11.5858C5.96086 11.2107 6.46957 11 7 11Z" fill="white"/>
</g>
<defs>
<clipPath id="clip0_39_5531">
<path d="M0 2H14V18H0V2Z" fill="white"/>
</clipPath>
</defs>
</svg>
