<svg width="18" height="20" viewBox="0 0 18 20" fill="none" xmlns="http://www.w3.org/2000/svg">
<path d="M18 20H0V0H18V20Z" stroke="#E5E7EB"/>
<g clip-path="url(#clip0_39_5537)">
<path d="M8.99922 3C6.47422 3 4.45234 4.15 2.98047 5.51875C1.51797 6.875 0.539844 8.5 0.0773437 9.61562C-0.0257813 9.8625 -0.0257813 10.1375 0.0773437 10.3844C0.539844 11.5 1.51797 13.125 2.98047 14.4812C4.45234 15.85 6.47422 17 8.99922 17C11.5242 17 13.5461 15.85 15.018 14.4812C16.4805 13.1219 17.4586 11.5 17.9242 10.3844C18.0273 10.1375 18.0273 9.8625 17.9242 9.61562C17.4586 8.5 16.4805 6.875 15.018 5.51875C13.5461 4.15 11.5242 3 8.99922 3ZM4.49922 10C4.49922 8.80653 4.97332 7.66193 5.81724 6.81802C6.66115 5.97411 7.80574 5.5 8.99922 5.5C10.1927 5.5 11.3373 5.97411 12.1812 6.81802C13.0251 7.66193 13.4992 8.80653 13.4992 10C13.4992 11.1935 13.0251 12.3381 12.1812 13.182C11.3373 14.0259 10.1927 14.5 8.99922 14.5C7.80574 14.5 6.66115 14.0259 5.81724 13.182C4.97332 12.3381 4.49922 11.1935 4.49922 10ZM8.99922 8C8.99922 9.10313 8.10234 10 6.99922 10C6.77734 10 6.56484 9.9625 6.36484 9.89687C6.19297 9.84062 5.99297 9.94688 5.99922 10.1281C6.00859 10.3438 6.03984 10.5594 6.09922 10.775C6.52734 12.375 8.17422 13.325 9.77422 12.8969C11.3742 12.4688 12.3242 10.8219 11.8961 9.22188C11.5492 7.925 10.4023 7.05312 9.12734 7C8.94609 6.99375 8.83984 7.19062 8.89609 7.36562C8.96172 7.56562 8.99922 7.77812 8.99922 8Z" fill="#404040"/>
</g>
<defs>
<clipPath id="clip0_39_5537">
<path d="M0 2H18V18H0V2Z" fill="white"/>
</clipPath>
</defs>
</svg>
