<svg width="20" height="20" viewBox="0 0 20 20" fill="none" xmlns="http://www.w3.org/2000/svg">
<path d="M13.4163 11.0833L12.208 9.87501C12.333 9.22223 12.1455 8.61112 11.6455 8.04168C11.1455 7.47223 10.4997 7.25001 9.70801 7.37501L8.49968 6.16668C8.73579 6.05557 8.97537 5.97223 9.21843 5.91668C9.46148 5.86112 9.7219 5.83334 9.99968 5.83334C11.0413 5.83334 11.9268 6.19793 12.6559 6.92709C13.3851 7.65626 13.7497 8.54168 13.7497 9.58334C13.7497 9.86112 13.7219 10.1215 13.6663 10.3646C13.6108 10.6076 13.5275 10.8472 13.4163 11.0833ZM16.083 13.7083L14.8747 12.5417C15.4025 12.1389 15.8712 11.6979 16.2809 11.2188C16.6906 10.7396 17.0413 10.1945 17.333 9.58334C16.6386 8.18056 15.642 7.06598 14.3434 6.23959C13.0448 5.4132 11.5969 5.00001 9.99968 5.00001C9.5969 5.00001 9.20106 5.02779 8.81218 5.08334C8.42329 5.1389 8.04134 5.22223 7.66634 5.33334L6.37468 4.04168C6.94412 3.80557 7.52745 3.62848 8.12468 3.51043C8.7219 3.39237 9.3469 3.33334 9.99968 3.33334C12.0969 3.33334 13.965 3.9132 15.6038 5.07293C17.2427 6.23265 18.4302 7.73612 19.1663 9.58334C18.8469 10.4028 18.4268 11.1632 17.9059 11.8646C17.3851 12.566 16.7775 13.1806 16.083 13.7083ZM16.4997 18.8333L12.9997 15.375C12.5136 15.5278 12.024 15.6424 11.5309 15.7188C11.0379 15.7951 10.5275 15.8333 9.99968 15.8333C7.90245 15.8333 6.0344 15.2535 4.39551 14.0938C2.75662 12.934 1.56912 11.4306 0.833008 9.58334C1.12467 8.84723 1.49273 8.1632 1.93717 7.53126C2.38162 6.89931 2.88856 6.33334 3.45801 5.83334L1.16634 3.50001L2.33301 2.33334L17.6663 17.6667L16.4997 18.8333ZM4.62468 7.00001C4.2219 7.36112 3.85384 7.75695 3.52051 8.18751C3.18717 8.61806 2.90245 9.08334 2.66634 9.58334C3.36079 10.9861 4.35731 12.1007 5.65593 12.9271C6.95454 13.7535 8.40245 14.1667 9.99968 14.1667C10.2775 14.1667 10.5483 14.1493 10.8122 14.1146C11.0761 14.0799 11.3469 14.0417 11.6247 14L10.8747 13.2083C10.7219 13.25 10.5761 13.2813 10.4372 13.3021C10.2983 13.3229 10.1525 13.3333 9.99968 13.3333C8.95801 13.3333 8.07259 12.9688 7.34343 12.2396C6.61426 11.5104 6.24968 10.625 6.24968 9.58334C6.24968 9.43056 6.26009 9.28473 6.28093 9.14584C6.30176 9.00695 6.33301 8.86112 6.37468 8.70834L4.62468 7.00001Z" fill="#0A111A"/>
</svg>
